<svg width="297" height="257" viewBox="0 0 297 257" fill="none" xmlns="http://www.w3.org/2000/svg">
<g opacity="0.67" filter="url(#filter0_f_161_632)">
<path d="M188.838 55.7828C212.612 77.2384 268.402 99.9895 246.946 123.763C225.491 147.537 102.856 215.449 51.7941 189.199C28.0204 167.743 73.0935 98.6589 94.549 74.8852C116.005 51.1115 165.064 34.3273 188.838 55.7828Z" fill="url(#paint0_linear_161_632)" fill-opacity="0.3"/>
</g>
<g filter="url(#filter1_ii_161_632)">
<path fill-rule="evenodd" clip-rule="evenodd" d="M152.043 148.438V148.44H105.363C82.1284 148.44 63.293 129.605 63.293 106.37C63.293 83.1358 82.1283 64.3004 105.363 64.3004H107.668C115.824 64.3004 123.466 66.5008 130.034 70.3404C138.569 45.0488 162.487 26.8384 190.659 26.8384H193.828C227.407 26.8384 254.628 54.0594 254.628 87.6382C254.628 121.217 227.407 148.438 193.828 148.438H152.043Z" fill="white"/>
</g>
<defs>
<filter id="filter0_f_161_632" x="0.0507812" y="0.907959" width="296.713" height="239.227" filterUnits="userSpaceOnUse" color-interpolation-filters="sRGB">
<feFlood flood-opacity="0" result="BackgroundImageFix"/>
<feBlend mode="normal" in="SourceGraphic" in2="BackgroundImageFix" result="shape"/>
<feGaussianBlur stdDeviation="22.5" result="effect1_foregroundBlur_161_632"/>
</filter>
<filter id="filter1_ii_161_632" x="45.293" y="11.8384" width="217.336" height="147.602" filterUnits="userSpaceOnUse" color-interpolation-filters="sRGB">
<feFlood flood-opacity="0" result="BackgroundImageFix"/>
<feBlend mode="normal" in="SourceGraphic" in2="BackgroundImageFix" result="shape"/>
<feColorMatrix in="SourceAlpha" type="matrix" values="0 0 0 0 0 0 0 0 0 0 0 0 0 0 0 0 0 0 127 0" result="hardAlpha"/>
<feOffset dx="8" dy="-15"/>
<feGaussianBlur stdDeviation="15"/>
<feComposite in2="hardAlpha" operator="arithmetic" k2="-1" k3="1"/>
<feColorMatrix type="matrix" values="0 0 0 0 0 0 0 0 0 0 0 0 0 0 0 0 0 0 0.2 0"/>
<feBlend mode="normal" in2="shape" result="effect1_innerShadow_161_632"/>
<feColorMatrix in="SourceAlpha" type="matrix" values="0 0 0 0 0 0 0 0 0 0 0 0 0 0 0 0 0 0 127 0" result="hardAlpha"/>
<feOffset dx="-18" dy="11"/>
<feGaussianBlur stdDeviation="15"/>
<feComposite in2="hardAlpha" operator="arithmetic" k2="-1" k3="1"/>
<feColorMatrix type="matrix" values="0 0 0 0 1 0 0 0 0 1 0 0 0 0 1 0 0 0 1 0"/>
<feBlend mode="normal" in2="effect1_innerShadow_161_632" result="effect2_innerShadow_161_632"/>
</filter>
<linearGradient id="paint0_linear_161_632" x1="77.0419" y1="199.711" x2="215.134" y2="44.7359" gradientUnits="userSpaceOnUse">
<stop stop-color="#254659"/>
<stop offset="1" stop-color="#023553"/>
</linearGradient>
</defs>
</svg>
