<svg width="354" height="380" viewBox="0 0 354 380" fill="none" xmlns="http://www.w3.org/2000/svg">
<path d="M451.596 379.379H123.778C91.977 379.355 61.4182 367.029 38.499 344.981C15.5797 322.934 2.07696 292.874 0.817426 261.095C-0.442106 229.316 10.6393 198.282 31.7417 174.489C52.8441 150.696 82.3314 135.99 114.031 133.448C118.551 101.525 132.965 71.8228 155.245 48.5198C177.525 25.2169 206.55 9.48605 238.236 3.54055C269.921 -2.40495 302.673 1.73406 331.884 15.3753C361.095 29.0165 385.295 51.4734 401.078 79.5867C430.028 69.5645 461.306 68.3935 490.923 76.2231C520.541 84.0526 547.155 100.528 567.371 123.547C587.587 146.566 600.489 175.086 604.431 205.469C608.373 235.852 603.176 266.721 589.503 294.137C581.479 318.908 565.815 340.499 544.759 355.814C523.704 371.128 498.338 379.378 472.303 379.379H451.596Z" fill="url(#paint0_linear_153_518)"/>
<defs>
<linearGradient id="paint0_linear_153_518" x1="303.217" y1="0.896484" x2="479.016" y2="425.893" gradientUnits="userSpaceOnUse">
<stop stop-color="#DCEAFD"/>
<stop offset="1" stop-color="#DAE7FC"/>
</linearGradient>
</defs>
</svg>
